<svg width="253" height="166" viewBox="0 0 253 166" fill="none" xmlns="http://www.w3.org/2000/svg">
<path d="M194.97 62.5H180.598C176.331 47.6477 167.514 34.1689 155.148 23.595C142.782 13.0212 127.363 5.77641 110.645 2.68383C93.9258 -0.40875 76.5769 0.774913 60.5692 6.10032C44.5616 11.4257 30.5371 20.6793 20.0893 32.8097C9.64157 44.94 3.18949 59.4606 1.46624 74.7216C-0.257008 89.9826 2.81767 105.372 10.3409 119.141C17.8641 132.91 29.5342 144.507 44.0251 152.613C58.5161 160.72 75.2467 165.011 92.3161 165H194.97C210.095 165 224.601 159.6 235.296 149.989C245.991 140.378 252 127.342 252 113.75C252 100.158 245.991 87.122 235.296 77.5108C224.601 67.8995 210.095 62.5 194.97 62.5Z" stroke="#65DAFF" stroke-width="2" stroke-linecap="round" stroke-linejoin="round"/>
<path d="M183.159 72.3546L171.107 72.2818C167.6 60.3368 160.271 49.4714 149.953 40.9201C139.634 32.3688 126.74 26.4746 112.734 23.9072C98.729 21.3398 84.1746 22.2021 70.7248 26.3963C57.2751 30.5904 45.4694 37.9482 36.6492 47.6334C27.8289 57.3187 22.3479 68.9432 20.8288 81.186C19.3097 93.4288 21.8134 105.799 28.0556 116.891C34.2977 127.983 44.028 137.352 56.1406 143.933C68.2533 150.514 82.2627 154.044 96.577 154.122L182.662 154.641C195.346 154.718 207.536 150.457 216.552 142.795C225.568 135.133 230.669 124.699 230.735 113.787C230.801 102.875 225.826 92.3796 216.903 84.6095C207.981 76.8395 195.843 72.4312 183.159 72.3546Z" stroke="#65DAFF" stroke-width="2" stroke-linecap="round" stroke-linejoin="round"/>
<path d="M130.645 117.389C130.645 116.437 130.464 115.54 130.103 114.697C129.741 113.854 129.247 113.119 128.621 112.493C127.995 111.866 127.26 111.373 126.417 111.011C125.586 110.65 124.701 110.469 123.761 110.469C122.81 110.469 121.912 110.65 121.069 111.011C120.238 111.373 119.51 111.866 118.883 112.493C118.269 113.119 117.781 113.854 117.42 114.697C117.059 115.54 116.878 116.437 116.878 117.389C116.878 118.328 117.059 119.213 117.42 120.044C117.781 120.875 118.269 121.604 118.883 122.23C119.51 122.857 120.238 123.351 121.069 123.712C121.912 124.073 122.81 124.254 123.761 124.254C124.038 124.254 124.333 124.236 124.646 124.2C124.972 124.152 125.357 124.061 125.803 123.929L126.616 127.289C126.038 127.446 125.52 127.554 125.062 127.614C124.616 127.674 124.183 127.705 123.761 127.705C122.364 127.705 121.039 127.428 119.787 126.874C118.534 126.319 117.432 125.573 116.48 124.633C115.541 123.682 114.794 122.586 114.24 121.345C113.686 120.093 113.409 118.774 113.409 117.389C113.409 115.895 113.668 114.516 114.186 113.251C114.716 111.975 115.439 110.879 116.354 109.963C117.281 109.036 118.377 108.313 119.642 107.795C120.907 107.278 122.28 107.019 123.761 107.019C125.231 107.019 126.598 107.284 127.862 107.813C129.127 108.331 130.217 109.054 131.132 109.981C132.06 110.909 132.782 112.005 133.3 113.27C133.83 114.534 134.095 115.907 134.095 117.389C134.095 118.184 133.999 118.93 133.806 119.629C133.625 120.327 133.324 121.092 132.903 121.923H124.917V121.634C124.64 121.779 124.369 121.881 124.104 121.941C123.84 121.99 123.617 122.014 123.436 122.014C122.75 122.014 122.123 121.905 121.557 121.688C121.003 121.46 120.527 121.14 120.13 120.731C119.732 120.321 119.425 119.84 119.208 119.286C118.992 118.72 118.883 118.099 118.883 117.425C118.883 116.738 118.986 116.112 119.19 115.546C119.407 114.98 119.714 114.492 120.112 114.083C120.509 113.673 120.985 113.36 121.539 113.143C122.105 112.914 122.737 112.8 123.436 112.8C123.617 112.8 123.84 112.83 124.104 112.89C124.369 112.938 124.64 113.029 124.917 113.161V112.348H128.278V118.979H130.464C130.536 118.701 130.584 118.437 130.608 118.184C130.632 117.931 130.645 117.666 130.645 117.389ZM122.208 117.425C122.208 117.834 122.328 118.16 122.569 118.4C122.822 118.629 123.159 118.744 123.581 118.744C123.99 118.744 124.315 118.629 124.556 118.4C124.797 118.16 124.917 117.834 124.917 117.425C124.917 116.991 124.797 116.654 124.556 116.413C124.315 116.172 123.99 116.052 123.581 116.052C123.159 116.052 122.822 116.172 122.569 116.413C122.328 116.654 122.208 116.991 122.208 117.425Z" stroke="#65DAFF" stroke-width="2" stroke-linecap="round" stroke-linejoin="round"/>
<path d="M142.153 134.371H137.185V107.651H138.377L140.346 109.981C140.792 109.56 141.28 109.162 141.81 108.789C142.34 108.416 142.888 108.097 143.454 107.832C144.032 107.555 144.628 107.338 145.242 107.181C145.856 107.025 146.477 106.946 147.103 106.946C148.464 106.946 149.741 107.193 150.933 107.687C152.138 108.169 153.185 108.855 154.077 109.747C154.98 110.638 155.691 111.716 156.208 112.98C156.726 114.233 156.985 115.624 156.985 117.154C156.985 118.744 156.726 120.177 156.208 121.454C155.691 122.718 154.98 123.796 154.077 124.688C153.185 125.567 152.138 126.241 150.933 126.711C149.741 127.181 148.464 127.416 147.103 127.416C146.669 127.416 146.236 127.367 145.802 127.271C145.381 127.175 144.959 127.048 144.538 126.892C144.128 126.723 143.719 126.536 143.309 126.332C142.912 126.127 142.526 125.916 142.153 125.699V134.371ZM152.035 117.154C152.035 116.335 151.903 115.6 151.638 114.95C151.385 114.299 151.035 113.751 150.59 113.306C150.144 112.848 149.62 112.499 149.018 112.258C148.416 112.017 147.778 111.896 147.103 111.896C146.429 111.896 145.79 112.017 145.188 112.258C144.598 112.499 144.08 112.848 143.634 113.306C143.189 113.751 142.833 114.299 142.568 114.95C142.315 115.6 142.189 116.335 142.189 117.154C142.189 117.937 142.315 118.653 142.568 119.304C142.833 119.954 143.189 120.508 143.634 120.966C144.08 121.424 144.598 121.779 145.188 122.032C145.79 122.285 146.429 122.411 147.103 122.411C147.778 122.411 148.416 122.285 149.018 122.032C149.62 121.779 150.144 121.424 150.59 120.966C151.035 120.508 151.385 119.954 151.638 119.304C151.903 118.653 152.035 117.937 152.035 117.154Z" stroke="#65DAFF" stroke-width="2" stroke-linecap="round" stroke-linejoin="round"/>
<path d="M164.953 120.604H160.924L159.822 101.093H166.073L164.953 120.604ZM166.037 125.157C166.037 125.591 165.952 126 165.784 126.386C165.627 126.759 165.41 127.084 165.133 127.361C164.856 127.638 164.531 127.855 164.158 128.012C163.784 128.18 163.387 128.265 162.965 128.265C162.532 128.265 162.128 128.18 161.755 128.012C161.382 127.855 161.05 127.638 160.761 127.361C160.484 127.084 160.261 126.759 160.093 126.386C159.936 126 159.858 125.591 159.858 125.157C159.858 124.736 159.936 124.338 160.093 123.965C160.261 123.591 160.484 123.266 160.761 122.989C161.05 122.712 161.382 122.495 161.755 122.339C162.128 122.17 162.532 122.086 162.965 122.086C163.387 122.086 163.784 122.17 164.158 122.339C164.531 122.495 164.856 122.712 165.133 122.989C165.41 123.266 165.627 123.591 165.784 123.965C165.952 124.338 166.037 124.736 166.037 125.157Z" stroke="#65DAFF" stroke-width="2" stroke-linecap="round" stroke-linejoin="round"/>
<path d="M185.404 111.463V116.377H170.228V111.463H185.404Z" stroke="#65DAFF" stroke-width="2" stroke-linecap="round" stroke-linejoin="round"/>
<path d="M198.628 127H193.461V106.278H185.675V101.093H206.397V106.278H198.628V127Z" stroke="#65DAFF" stroke-width="2" stroke-linecap="round" stroke-linejoin="round"/>
<path d="M82.5 90C87.1944 90 91 86.1944 91 81.5C91 76.8056 87.1944 73 82.5 73C77.8056 73 74 76.8056 74 81.5C74 86.1944 77.8056 90 82.5 90Z" stroke="#65DAFF" stroke-width="2" stroke-linecap="round" stroke-linejoin="round"/>
<path d="M102.345 89.5455C101.988 90.3543 101.882 91.2516 102.04 92.1216C102.197 92.9916 102.612 93.7943 103.23 94.4264L103.391 94.5873C103.89 95.0854 104.286 95.677 104.556 96.3281C104.826 96.9792 104.964 97.6772 104.964 98.382C104.964 99.0869 104.826 99.7849 104.556 100.436C104.286 101.087 103.89 101.679 103.391 102.177C102.893 102.676 102.302 103.071 101.651 103.341C100.999 103.611 100.301 103.75 99.5966 103.75C98.8917 103.75 98.1938 103.611 97.5426 103.341C96.8915 103.071 96.3 102.676 95.8018 102.177L95.6409 102.016C95.0089 101.398 94.2061 100.983 93.3361 100.825C92.4662 100.667 91.5689 100.774 90.76 101.131C89.9668 101.471 89.2903 102.035 88.8138 102.755C88.3373 103.474 88.0816 104.317 88.0782 105.18V105.636C88.0782 107.059 87.5131 108.423 86.5072 109.429C85.5013 110.435 84.1371 111 82.7145 111C81.292 111 79.9278 110.435 78.9219 109.429C77.916 108.423 77.3509 107.059 77.3509 105.636V105.395C77.3301 104.507 77.0428 103.646 76.5263 102.924C76.0097 102.202 75.2879 101.652 74.4545 101.345C73.6457 100.988 72.7484 100.882 71.8784 101.04C71.0085 101.197 70.2057 101.612 69.5736 102.23L69.4127 102.391C68.9146 102.89 68.323 103.286 67.6719 103.556C67.0208 103.826 66.3228 103.964 65.618 103.964C64.9131 103.964 64.2151 103.826 63.564 103.556C62.9129 103.286 62.3213 102.89 61.8232 102.391C61.3245 101.893 60.9289 101.302 60.659 100.651C60.389 99.9994 60.2501 99.3015 60.2501 98.5966C60.2501 97.8917 60.389 97.1938 60.659 96.5426C60.9289 95.8915 61.3245 95.3 61.8232 94.8018L61.9841 94.6409C62.6024 94.0089 63.0171 93.2061 63.1748 92.3361C63.3326 91.4662 63.2261 90.5689 62.8691 89.76C62.5291 88.9668 61.9647 88.2903 61.2452 87.8138C60.5256 87.3373 59.6825 87.0816 58.8195 87.0782H58.3636C56.9411 87.0782 55.5768 86.5131 54.571 85.5072C53.5651 84.5013 53 83.1371 53 81.7145C53 80.292 53.5651 78.9278 54.571 77.9219C55.5768 76.916 56.9411 76.3509 58.3636 76.3509H58.605C59.4927 76.3301 60.3536 76.0428 61.0758 75.5263C61.798 75.0097 62.3481 74.2879 62.6545 73.4545C63.0115 72.6457 63.118 71.7484 62.9603 70.8784C62.8025 70.0085 62.3878 69.2057 61.7695 68.5736L61.6086 68.4127C61.1099 67.9146 60.7143 67.323 60.4444 66.6719C60.1745 66.0208 60.0356 65.3228 60.0356 64.618C60.0356 63.9131 60.1745 63.2151 60.4444 62.564C60.7143 61.9129 61.1099 61.3213 61.6086 60.8232C62.1068 60.3245 62.6983 59.9289 63.3495 59.659C64.0006 59.389 64.6985 59.2501 65.4034 59.2501C66.1083 59.2501 66.8062 59.389 67.4574 59.659C68.1085 59.9289 68.7 60.3245 69.1982 60.8232L69.3591 60.9841C69.9911 61.6024 70.7939 62.0171 71.6639 62.1748C72.5338 62.3326 73.4311 62.2261 74.24 61.8691H74.4545C75.2477 61.5291 75.9242 60.9647 76.4007 60.2452C76.8772 59.5256 77.1329 58.6825 77.1364 57.8195V57.3636C77.1364 55.9411 77.7015 54.5768 78.7073 53.571C79.7132 52.5651 81.0775 52 82.5 52C83.9225 52 85.2868 52.5651 86.2927 53.571C87.2985 54.5768 87.8636 55.9411 87.8636 57.3636V57.605C87.8671 58.468 88.1228 59.3111 88.5993 60.0306C89.0758 60.7501 89.7523 61.3146 90.5455 61.6545C91.3543 62.0115 92.2516 62.118 93.1216 61.9603C93.9916 61.8025 94.7943 61.3878 95.4264 60.7695L95.5873 60.6086C96.0854 60.1099 96.677 59.7143 97.3281 59.4444C97.9792 59.1745 98.6772 59.0356 99.382 59.0356C100.087 59.0356 100.785 59.1745 101.436 59.4444C102.087 59.7143 102.679 60.1099 103.177 60.6086C103.676 61.1068 104.071 61.6983 104.341 62.3495C104.611 63.0006 104.75 63.6985 104.75 64.4034C104.75 65.1083 104.611 65.8062 104.341 66.4574C104.071 67.1085 103.676 67.7 103.177 68.1982L103.016 68.3591C102.398 68.9911 101.983 69.7939 101.825 70.6639C101.667 71.5338 101.774 72.4311 102.131 73.24V73.4545C102.471 74.2477 103.035 74.9242 103.755 75.4007C104.474 75.8772 105.317 76.1329 106.18 76.1364H106.636C108.059 76.1364 109.423 76.7015 110.429 77.7073C111.435 78.7132 112 80.0775 112 81.5C112 82.9225 111.435 84.2868 110.429 85.2927C109.423 86.2985 108.059 86.8636 106.636 86.8636H106.395C105.532 86.8671 104.689 87.1228 103.969 87.5993C103.25 88.0758 102.685 88.7523 102.345 89.5455Z" stroke="#65DAFF" stroke-width="2" stroke-linecap="round" stroke-linejoin="round"/>
</svg>
